<?xml version="1.0" encoding="UTF-8"?>
<svg xmlns="http://www.w3.org/2000/svg" xml:space="preserve" version="1.1" style="shape-rendering:geometricPrecision; text-rendering:geometricPrecision; image-rendering:optimizeQuality; fill-rule:evenodd; clip-rule:evenodd"
viewBox="40 470 2180 520">
 <defs>
  <style type="text/css">
   <![CDATA[
    .fil1 {fill:#78350f}
    .fil0 {fill:#FBF5E5}
    .fil3 {fill:#d97706}
    .fil2 {fill:#f59e0b}
    .fil4 {fill:#78350f;fill-rule:nonzero}
   ]]>
  </style>
 </defs>
 <g id="Layer_x0020_1">
  <g id="_17WF" transform="translate(-973, 0)">
   <path id="_2WF" class="fil1" d="M1350.08 766.92c-14.49,13.87 -33.63,21.56 -53.68,21.56 -20.06,0 -39.21,-7.68 -53.69,-21.56 -3.86,-3.7 -4.08,-9.86 -0.5,-13.83l8.29 -9.15c1.86,-2.06 4.25,-3.17 7.03,-3.26 2.74,-0.09 5.26,0.89 7.23,2.8 8.51,8.24 19.79,12.8 31.64,12.8 11.84,0 23.13,-4.56 31.63,-12.8 1.97,-1.91 4.49,-2.89 7.23,-2.8 2.78,0.09 5.17,1.2 7.04,3.26l8.28 9.15c3.58,3.97 3.36,10.13 -0.5,13.83z"/>
   <path id="_2WF_0" class="fil1" d="M1411.09 626.7c23.46,0 42.48,19.02 42.48,42.48 0,23.46 -19.02,42.48 -42.48,42.48 -23.46,0 -42.48,-19.02 -42.48,-42.48 0,-23.46 19.02,-42.48 42.48,-42.48z"/>
   <path id="_2WF_1" class="fil1" d="M1183.73 626.7c23.46,0 42.48,19.02 42.48,42.48 0,23.46 -19.02,42.48 -42.48,42.48 -23.46,0 -42.48,-19.02 -42.48,-42.48 0,-23.46 19.02,-42.48 42.48,-42.48z"/>
   <path id="_2WF_2" class="fil2" d="M1186.25 930.87l21.8 10.68 10.68 21.8c1.29,2.56 3.74,3.85 6.2,3.85 2.46,0 4.92,-1.29 6.2,-3.85l10.68 -21.8 21.8 -10.68c5.12,-2.56 5.12,-9.83 0,-12.39l-21.8 -10.69 -10.68 -21.79c-2.57,-5.13 -9.83,-5.13 -12.4,0l-10.68 21.79 -21.8 10.69c-5.12,2.56 -5.12,9.83 0,12.39z"/>
   <path id="_2WF_3" class="fil2" d="M1032.8 863.81l49.84 24.43 24.44 49.85c5.86,11.72 22.48,11.72 28.34,0l24.43 -49.85 49.85 -24.43c11.72,-5.86 11.72,-22.48 0,-28.34l-49.85 -24.44 -24.43 -49.84c-5.86,-11.73 -22.48,-11.73 -28.34,0l-24.44 49.84 -49.84 24.44c-5.87,2.93 -8.8,8.55 -8.8,14.17 0,5.62 2.93,11.24 8.8,14.17z"/>
   <path id="_2WF_4" class="fil3" d="M1377.01 492.5l131.28 0c9.37,0 17.87,4.16 24.02,10.86 6.14,6.69 9.96,15.95 9.96,26.16l0 361.98c0,10.21 -3.82,19.47 -9.96,26.16 -6.15,6.7 -14.65,10.86 -24.02,10.86l-131.28 0c-11.59,0 -24.78,0.28 -36.82,1.97 -5.29,0.74 -10.53,1.75 -15.51,3.11 -3.97,1.09 -7.8,0.21 -11.03,-2.53 -3.22,-2.74 -4.94,-6.57 -4.94,-11.03l0 -16c0,-6.63 4.11,-12.22 10.05,-13.66 5.41,-1.3 10.91,-2.31 16.41,-3.08 15.2,-2.13 29.57,-2.49 41.84,-2.49l117.11 0c4.42,0 8.02,-3.93 8.02,-8.75l0 -331.11c0,-4.81 -3.6,-8.74 -8.02,-8.74l-117.11 0c-10.32,0 -19.58,3.28 -27.52,8.79 -9.34,6.48 -17.19,16.15 -23.12,27.43 -3.06,5.81 -7.34,10.44 -12.46,13.66l-0.08 0c-5.1,3.2 -10.89,4.9 -16.99,4.88 -6.21,-0.02 -12.04,-1.77 -17.13,-5.02 -5.14,-3.29 -9.41,-7.97 -12.42,-13.79 -5.76,-11.14 -13.47,-20.71 -22.8,-27.14 -8.09,-5.58 -17.54,-8.89 -28.14,-8.89l0 0.08 -115.65 0c-4.42,0 -8.03,3.93 -8.03,8.74l0 179.54c0,7.7 -5.76,13.98 -12.84,13.98l-14.44 0c-7.08,0 -12.84,-6.28 -12.84,-13.98l0 -194.97c0,-10.21 3.81,-19.47 9.96,-26.16 6.15,-6.7 14.65,-10.86 24.02,-10.86l129.82 0 0 0.09c18.7,0 35.3,5.8 49.46,15.55 12.44,8.57 22.88,20.1 31.12,33.32 8.29,-13.13 18.76,-24.61 31.08,-33.16 14.27,-9.91 30.77,-15.8 49,-15.8z"/>
  </g>
  <g id="_17WT" transform="translate(132, -461)">
   <path id="_2ndCol-7" class="fil4" d="M488.13 1074.74l0 45.68 67.86 0 0 183.32 49.06 0 0 -183.32 67.87 0 0 -45.68 -184.79 0zm256.3 65.47l-27.74 89.45 -24.91 -89.45 -48.57 0 52.55 163.53 39.3 0 28.56 -94.08 28.4 94.08 39.3 0 52.55 -163.53 -48.56 0 -24.75 89.61 -28.24 -89.61 -37.89 0zm156.07 163.53l46.28 0 0 -163.53 -46.28 0 0 163.53zm126.63 -163.53l-46.17 0 0 163.53 46.17 0 0 -90.7c0,-17.23 7.52,-33.09 26.82,-33.09 19.18,0 26.98,15.97 26.98,33.09l0 90.7 46.01 0 0 -91.03c0,-35.1 -13.74,-74.74 -55.12,-74.74 -18.53,0 -37.83,9.44 -44.69,27.48l0 -25.24zm132.51 -65.47l0 229 46.5 0 0 -61.32 14.99 0 48.9 61.32 57.94 0 -65.96 -83.67 57.35 -79.86 -56.37 0 -41.7 57.84 -15.15 0 0 -123.31 -46.5 0zm183.32 229l46.17 0 0 -229 -46.17 0 0 229zm120.25 -98.39c9.43,-35.27 63.23,-35.27 73.64,0l-73.64 0zm103.95 73.81l-30.47 -26.66c-20.44,21.54 -64.54,20.44 -73.64,-10.41l120.74 0c0.98,-6.54 1.58,-13.25 1.58,-19.95 0,-47.42 -38.16,-85.15 -85.42,-85.15 -47.26,0 -85.14,37.89 -85.14,85.15 0,80.35 98.72,112.4 152.35,57.02z"/>
   <path id="_3rdCol-7" class="fil3" d="M1634.42 1077.58l0 223.38 67.53 0c39.52,0 76.69,-22.86 76.69,-65.9 0,-28.81 -17.06,-46.84 -43.81,-54.9l-8.41 -2.53 8.34 -2.78c20.03,-6.68 30.8,-19.72 30.8,-41.18 0,-39.56 -35.08,-56.09 -70.15,-56.09l-60.99 0zm30.4 88.31l0 -61.17 30.59 0c21.17,0 39.74,6.02 39.74,30.59 0,24.76 -18.42,30.58 -39.74,30.58l-30.59 0zm83.41 67.53c0,27.92 -20.41,40.4 -46.28,40.4l-37.13 0 0 -80.79 37.13 0c25.87,0 46.28,12.48 46.28,40.39zm140.47 74.08c45.59,0 79.96,-33.09 79.96,-78.98 0,-45.9 -34.37,-78.98 -79.96,-78.98 -45.59,0 -79.96,33.08 -79.96,78.98 0,45.89 34.37,78.98 79.96,78.98zm-50.86 -78.98c0,-29.87 20.19,-53.48 50.86,-53.48 30.68,0 50.87,23.61 50.87,53.48 0,29.86 -20.19,53.48 -50.87,53.48 -30.67,0 -50.86,-23.62 -50.86,-53.48zm170.74 -124.77l0 52.33 -24.53 0 0 25.5 24.53 0 0 119.38 28.76 0 0 -119.38 24.54 0 0 -25.5 -24.54 0 0 -52.33 -28.76 0z"/>
  </g>
 </g>
</svg>